<?xml version="1.0" encoding="UTF-8" standalone="no"?><!DOCTYPE svg PUBLIC "-//W3C//DTD SVG 1.1//EN" "http://www.w3.org/Graphics/SVG/1.1/DTD/svg11.dtd"><svg width="100%" height="100%" viewBox="0 0 2992 888" version="1.1" xmlns="http://www.w3.org/2000/svg" xmlns:xlink="http://www.w3.org/1999/xlink" xml:space="preserve" xmlns:serif="http://www.serif.com/" style="fill-rule:evenodd;clip-rule:evenodd;stroke-linejoin:round;stroke-miterlimit:2;"><g><g><path d="M31.667,887.083c-8.334,0 -16.667,-3.333 -22.5,-9.166c-5.834,-5.834 -9.167,-14.167 -9.167,-22.5l0,-548.334c0,-6.666 2.083,-13.333 5.833,-18.75l197.084,-275c5.833,-8.333 15.833,-13.333 25.833,-13.333l2730.83,0c17.5,0 32.084,14.167 32.084,32.083l-0,548.334c-0,6.666 -2.084,12.916 -5.834,18.333l-195.833,274.167c-5.833,8.333 -15.833,13.333 -25.833,13.333l-2732.5,0.833Zm32.083,-569.583l0,505.833l2684.17,-0.416l180.416,-252.5l0,-506.25l-2682.92,-0l-181.667,253.333Z" style="fill:#8d85f6;fill-rule:nonzero;"/><g><path d="M2160.83,370c41.667,0 80.417,16.25 110,45.417c29.167,29.583 45.417,68.333 45.417,110c-0.417,85.416 -70,154.583 -155,154.583l-325.833,0l71.666,-104.167l254.167,0c27.917,0 51.25,-22.916 51.25,-50.833c0,-13.75 -5.417,-26.667 -15,-36.25c-9.583,-9.583 -22.5,-15 -36.25,-15l-8.333,-0.417l-183.334,0c-41.666,0 -80.416,-16.25 -110,-45.416c-29.166,-29.584 -45.416,-68.334 -45.416,-110c0.416,-85.417 70,-154.584 155,-154.584l329.583,0l-71.25,104.167l-258.333,0c-27.917,0 -51.25,22.917 -51.25,50.833c-0,13.75 5.416,26.667 15,36.25c9.583,9.584 22.5,15 36.25,15l183.333,0l8.333,0.417Z" style="fill:#8d85f6;fill-rule:nonzero;"/><path d="M462.5,162.083l-100,0l-202.083,518.334l113.75,-0l43.333,-114.167l185.833,0l42.917,114.167l117.083,-0l-200.833,-518.334Zm-75.417,304.167l-70,100l66.25,-174.167c3.334,-9.583 7.084,-20.416 11.25,-32.083c4.167,-12.083 8.334,-24.167 12.5,-37.083c1.25,-3.75 2.5,-7.5 3.75,-11.25c1.25,3.333 2.5,7.083 3.334,10.833l13.333,40.417c4.167,12.5 7.5,21.666 10,27.5l28.75,75.833l-79.167,0Z" style="fill:#8d85f6;fill-rule:nonzero;"/><path d="M1017.92,477.5c1.666,-0.833 3.75,-2.083 5.416,-2.917c25.834,-14.583 46.667,-35 61.667,-60.416c15.417,-25.417 22.917,-53.334 22.917,-83.75c-0,-31.667 -7.917,-60.417 -22.917,-85.834c-15.417,-25.416 -36.25,-45.416 -62.083,-60.416c-26.25,-14.584 -55,-22.084 -86.667,-22.084l-226.25,0l0,517.5l110,0l0,-182.916l80,-0l102.917,182.916l132.5,0.834l-117.5,-202.917Zm-198.334,-212.5l100.834,0c15,0 28.333,2.917 39.583,8.75c11.25,5.833 20,13.75 26.25,23.333c6.25,9.584 9.167,21.667 9.167,35.417c-0,12.083 -2.5,23.333 -7.5,33.333c-5,10 -11.667,17.084 -20.417,22.917c-8.75,5.417 -18.75,7.917 -30.833,7.917l-51.667,-0l-65.417,100l0,-231.667Z" style="fill:#8d85f6;fill-rule:nonzero;"/><path d="M2479.17,576.667l-0,-110l225.833,-0l0,-102.084l-158.333,0l-67.5,102.084l-0,-200.417l241.25,0l70.416,-103.75l-422.5,0l0,517.917l352.084,-0l73.333,-103.75l-314.583,-0Z" style="fill:#8d85f6;fill-rule:nonzero;"/><path d="M1768.33,680.417l0,-517.917l-114.166,86.25l-0,431.667l114.166,-0Z" style="fill:#8d85f6;fill-rule:nonzero;"/><path d="M1489.58,477.5c1.667,-0.833 3.75,-2.083 5.417,-2.917c25.833,-14.583 46.667,-35 61.667,-60.416c15.416,-25.417 22.916,-53.334 22.916,-83.75c0,-31.667 -7.916,-60.417 -22.916,-85.834c-15.417,-25.416 -36.25,-45.416 -62.084,-60.416c-26.25,-14.584 -55,-22.084 -86.666,-22.084l-226.25,0l-0,517.5l110,0l-0,-182.916l80,-0l102.916,182.916l132.5,0.834l-117.5,-202.917Zm-197.916,-212.5l100.833,0c15,0 28.333,2.917 39.583,8.75c11.25,5.833 20,13.75 26.25,23.333c6.25,9.584 9.167,21.667 9.167,35.417c0,12.083 -2.5,23.333 -7.5,33.333c-5,10 -11.667,17.084 -20.417,22.917c-8.75,5.417 -18.75,7.917 -30.833,7.917l-51.667,-0l-65.416,99.583l-0,-231.25Z" style="fill:#8d85f6;fill-rule:nonzero;"/></g></g></g></svg>