<?xml version="1.0" encoding="UTF-8"?>
<svg version="1.1" xmlns="http://www.w3.org/2000/svg" width="300" height="68">
<path d="M0 0 C1.29228516 0.01611328 2.58457031 0.03222656 3.91601562 0.04882812 C5.27085032 0.09059851 6.62566803 0.13292316 7.98046875 0.17578125 C9.35477741 0.20088056 10.72912991 0.22369089 12.10351562 0.24414062 C15.45944851 0.30301664 18.81314965 0.38521705 22.16796875 0.48828125 C22.16796875 3.12828125 22.16796875 5.76828125 22.16796875 8.48828125 C9.79296875 8.98328125 9.79296875 8.98328125 -2.83203125 9.48828125 C-2.83203125 25.98828125 -2.83203125 42.48828125 -2.83203125 59.48828125 C13.66796875 59.48828125 30.16796875 59.48828125 47.16796875 59.48828125 C47.16796875 42.98828125 47.16796875 26.48828125 47.16796875 9.48828125 C44.69296875 8.99328125 44.69296875 8.99328125 42.16796875 8.48828125 C42.16796875 5.84828125 42.16796875 3.20828125 42.16796875 0.48828125 C43.5610048 0.35170909 44.95802996 0.25556976 46.35546875 0.17578125 C47.13277344 0.11777344 47.91007812 0.05976562 48.7109375 0 C51.51298164 0.55684502 53.12764997 1.52008229 55.09681702 3.59138489 C57.58873142 8.00430157 56.87261566 13.56743135 56.83203125 18.48828125 C56.83681488 19.75671875 56.84159851 21.02515625 56.8465271 22.33203125 C56.84992809 25.01258949 56.84324153 27.69086267 56.81982422 30.37109375 C56.79133417 33.7980398 56.80774576 37.22302806 56.83768654 40.64990234 C56.86014919 43.92943118 56.84439936 47.20872681 56.83203125 50.48828125 C56.84721298 52.3290625 56.84721298 52.3290625 56.86270142 54.20703125 C56.79663591 59.00528644 56.70024551 62.48129961 54.43896484 66.75927734 C49.18078183 69.53868114 44.02600397 69.20065754 38.16796875 69.15234375 C36.89953125 69.15712738 35.63109375 69.16191101 34.32421875 69.1668396 C31.64366051 69.17024059 28.96538733 69.16355403 26.28515625 69.14013672 C22.8582102 69.11164667 19.43322194 69.12805826 16.00634766 69.15799904 C12.72681882 69.18046169 9.44752319 69.16471186 6.16796875 69.15234375 C4.94078125 69.1624649 3.71359375 69.17258606 2.44921875 69.18301392 C-2.34903644 69.11694841 -5.82504961 69.02055801 -10.10302734 66.75927734 C-12.88243114 61.50109433 -12.54440754 56.34631647 -12.49609375 50.48828125 C-12.50087738 49.21984375 -12.50566101 47.95140625 -12.5105896 46.64453125 C-12.51399059 43.96397301 -12.50730403 41.28569983 -12.48388672 38.60546875 C-12.45539667 35.1785227 -12.47180826 31.75353444 -12.50174904 28.32666016 C-12.52421169 25.04713132 -12.50846186 21.76783569 -12.49609375 18.48828125 C-12.5062149 17.26109375 -12.51633606 16.03390625 -12.52676392 14.76953125 C-12.41135418 6.38746589 -12.41135418 6.38746589 -9.7175293 2.20629883 C-6.19054687 0.10634322 -4.09104692 -0.09011117 0 0 Z " fill="#FFFFFF" transform="translate(11.83203125,-0.48828125)"/>
<path d="M0 0 C0 2.64 0 5.28 0 8 C-1.32 8 -2.64 8 -4 8 C-4 21.86 -4 35.72 -4 50 C-7.3 50 -10.6 50 -14 50 C-15.546875 50.226875 -17.09375 50.45375 -18.6875 50.6875 C-23.2366101 51.21702604 -26.05477565 50.50370007 -30 48 C-34.07153211 43.87692951 -35.356951 39.73045286 -35.625 34 C-35.34952687 28.25855996 -34.10409471 24.1139841 -30 20 C-25.58726139 16.81050515 -21.50087649 15.34513375 -16 16 C-15.34 16.33 -14.68 16.66 -14 17 C-13.85304688 15.66195313 -13.85304688 15.66195313 -13.703125 14.296875 C-13.55359375 13.12640625 -13.4040625 11.9559375 -13.25 10.75 C-13.11078125 9.58984375 -12.9715625 8.4296875 -12.828125 7.234375 C-10.89155862 -0.32919556 -6.82227856 -0.45481857 0 0 Z M-23.3125 25.875 C-25.98162149 29.23611595 -26.35621366 31.63079111 -26.26953125 35.95703125 C-25.81696945 39.38731848 -24.67215407 40.86227674 -22 43 C-19.14960693 43.47598797 -16.92778799 43.28797915 -14 43 C-12.55611429 41.78571012 -12.55611429 41.78571012 -12.90234375 38.18359375 C-12.90901911 36.60153318 -12.92098125 35.01948841 -12.9375 33.4375 C-12.94201172 32.63119141 -12.94652344 31.82488281 -12.95117188 30.99414062 C-12.96299482 28.99606244 -12.98093086 26.99802217 -13 25 C-16.82181054 23.08909473 -19.99317122 23.18365234 -23.3125 25.875 Z " fill="#FFFFFF" transform="translate(51,0)"/>
<path d="M0 0 C2.64 0 5.28 0 8 0 C8 3.63 8 7.26 8 11 C9.32 10.67 10.64 10.34 12 10 C14.354248 10.588562 16.69342986 11.24592899 19 12 C19 12.66 19 13.32 19 14 C19.66 14 20.32 14 21 14 C23.77951585 19.77284061 24.23046748 23.42722021 23.03125 29.703125 C21.56820672 32.96172141 20.08214592 34.18939358 17 36 C14.20452373 36.4567257 11.51013639 36.38116809 8.6875 36.25 C7.94693359 36.23195312 7.20636719 36.21390625 6.44335938 36.1953125 C4.6283429 36.14847337 2.81399834 36.07673789 1 36 C0.3475014 23.9895138 -0.16631339 12.03000164 0 0 Z M9 16 C7.66098208 17.11126659 7.66098208 17.11126659 7.90234375 19.94140625 C7.91394531 21.13636719 7.92554688 22.33132812 7.9375 23.5625 C7.94652344 24.76003906 7.95554688 25.95757812 7.96484375 27.19140625 C7.97644531 28.11824219 7.98804688 29.04507813 8 30 C12.10968507 30.24829438 12.10968507 30.24829438 15.875 28.9375 C17.66830867 25.84902396 17.42841969 23.48856031 17 20 C15.39450853 17.47688989 15.39450853 17.47688989 13 16 C11.68 16 10.36 16 9 16 Z " fill="#FFFFFF" transform="translate(226,16)"/>
<path d="M0 0 C0 1.98 0 3.96 0 6 C-1.32 6.33 -2.64 6.66 -4 7 C-4 16.57 -4 26.14 -4 36 C-6.536875 36.0825 -9.07375 36.165 -11.6875 36.25 C-12.47729248 36.28641602 -13.26708496 36.32283203 -14.08081055 36.36035156 C-17.90260839 36.42027101 -19.63709783 36.23202728 -22.95703125 34.109375 C-26.81589682 30.12507785 -26.38507198 26.34748886 -26.359375 20.99609375 C-25.82285181 16.52312326 -24.3330708 14.93627666 -21 12 C-18.59454362 10.79727181 -17.05003047 10.89928528 -14.375 10.9375 C-13.14910156 10.95103516 -13.14910156 10.95103516 -11.8984375 10.96484375 C-10.95871094 10.98224609 -10.95871094 10.98224609 -10 11 C-10.061875 9.9275 -10.12375 8.855 -10.1875 7.75 C-10 4 -10 4 -8.9375 1.5625 C-6.04961448 -0.76643994 -3.58423038 -0.27050795 0 0 Z M-17.125 17.0625 C-19.8624765 19.89122572 -19.93216262 22.13326949 -20 26 C-19.11670357 28.53958234 -19.11670357 28.53958234 -17 30 C-13.9157691 30.41702122 -13.9157691 30.41702122 -11 30 C-9.26150372 28.26150372 -9.82783704 25.9213363 -9.8125 23.5625 C-9.79832031 22.57378906 -9.78414062 21.58507812 -9.76953125 20.56640625 C-9.73849247 17.83415585 -9.73849247 17.83415585 -12 16 C-14.94875678 15.7763932 -14.94875678 15.7763932 -17.125 17.0625 Z " fill="#FFFFFF" transform="translate(107,16)"/>
<path d="M0 0 C2.31 0 4.62 0 7 0 C7.50615298 1.26839526 8.00469099 2.53983102 8.5 3.8125 C8.7784375 4.52019531 9.056875 5.22789063 9.34375 5.95703125 C10 8 10 8 10 11 C10.66 11 11.32 11 12 11 C12.17015625 10.28972656 12.3403125 9.57945313 12.515625 8.84765625 C12.75796875 7.92855469 13.0003125 7.00945313 13.25 6.0625 C13.48203125 5.14597656 13.7140625 4.22945312 13.953125 3.28515625 C14.29859375 2.53105469 14.6440625 1.77695312 15 1 C16.32 0.67 17.64 0.34 19 0 C21.475 5.445 21.475 5.445 24 11 C25.65 7.37 27.3 3.74 29 0 C30.98 0 32.96 0 35 0 C34.3440206 5.63587931 32.43967159 10.60988342 30.4375 15.875 C30.10814453 16.75414063 29.77878906 17.63328125 29.43945312 18.5390625 C28.63113386 20.69458053 27.81787706 22.84809441 27 25 C25.68 25 24.36 25 23 25 C20.525 19.06 20.525 19.06 18 13 C16.02 16.96 14.04 20.92 12 25 C10.68 25 9.36 25 8 25 C6.65882147 21.39870379 5.3284161 17.79352141 4 14.1875 C3.6184375 13.16333984 3.236875 12.13917969 2.84375 11.08398438 C2.4828125 10.10107422 2.121875 9.11816406 1.75 8.10546875 C1.41484375 7.19949951 1.0796875 6.29353027 0.734375 5.36010742 C0 3 0 3 0 0 Z " fill="#FFFFFF" transform="translate(149,27)"/>
<path d="M0 0 C1.05832031 -0.03738281 2.11664063 -0.07476563 3.20703125 -0.11328125 C6.1875 0.3125 6.1875 0.3125 8.5 1.828125 C10.78174817 5.18736536 11.05904594 8.43089928 11.375 12.375 C11.85966758 17.92064986 11.85966758 17.92064986 13.1875 23.3125 C12.8575 23.9725 12.5275 24.6325 12.1875 25.3125 C10.2075 25.3125 8.2275 25.3125 6.1875 25.3125 C6.1875 24.6525 6.1875 23.9925 6.1875 23.3125 C5.1975 23.9725 4.2075 24.6325 3.1875 25.3125 C0.11963466 25.84923519 -2.74273249 25.8379557 -5.8125 25.3125 C-8.4375 23.3125 -8.4375 23.3125 -9.8125 20.3125 C-10.09494403 16.49207283 -9.73607531 13.42079037 -7.25 10.4375 C-3.84196683 8.86456161 -0.48209542 8.10757901 3.1875 7.3125 C2.8575 6.9825 2.5275 6.6525 2.1875 6.3125 C0.84875569 6.42790899 -0.48508 6.60390543 -1.8125 6.8125 C-3.13992 7.02109457 -4.47375569 7.19709101 -5.8125 7.3125 C-6.8125 6.3125 -6.8125 6.3125 -6.9375 3.8125 C-6.70448128 -0.8478745 -4.11147366 0.09445949 0 0 Z M-1.8125 14.3125 C-2.1425 15.9625 -2.4725 17.6125 -2.8125 19.3125 C-0.8325 19.3125 1.1475 19.3125 3.1875 19.3125 C3.5175 17.6625 3.8475 16.0125 4.1875 14.3125 C2.2075 14.3125 0.2275 14.3125 -1.8125 14.3125 Z " fill="#FFFFFF" transform="translate(115.8125,26.6875)"/>
<path d="M0 0 C2.82424288 2.19022918 4.41508603 3.83017207 6 7 C6.41251687 11.92640344 6.6526414 16.47717008 4.6875 21.0625 C2.52511777 23.54523515 0.78184041 24.86130618 -2.48828125 25.44140625 C-9.69313707 25.75032815 -9.69313707 25.75032815 -13.0546875 23.8203125 C-16.47323641 20.40176359 -17.4260619 17.2218172 -17.6875 12.4375 C-17.39629627 7.00916383 -15.98890306 4.60900753 -12 1 C-8.28546768 -0.85726616 -4.04420575 -0.58501089 0 0 Z M-8.66796875 6.21484375 C-10.35516379 8.47598197 -10.37236863 9.76709549 -10.3125 12.5625 C-10.30863281 13.34753906 -10.30476563 14.13257813 -10.30078125 14.94140625 C-10.17703023 17.22126834 -10.17703023 17.22126834 -8 19 C-5.54290625 19.58350505 -5.54290625 19.58350505 -3 19 C-0.26715131 15.99386644 0.01313053 14.38735065 -0.125 10.3125 C-0.67835395 6.73574745 -0.67835395 6.73574745 -4 5 C-6.93975066 4.70563283 -6.93975066 4.70563283 -8.66796875 6.21484375 Z " fill="#FFFFFF" transform="translate(269,27)"/>
<path d="M0 0 C2.33333333 0 4.66666667 0 7 0 C7.65613281 -0.04640625 8.31226563 -0.0928125 8.98828125 -0.140625 C13.04120615 -0.33135088 15.39319172 -0.34132966 19 1.6875 C22.73545582 6.00662079 22.15666341 11.27223078 22.125 16.75 C22.13080078 17.77673828 22.13080078 17.77673828 22.13671875 18.82421875 C22.12672061 23.87327939 22.12672061 23.87327939 21 25 C19.00041636 25.04080783 16.99954746 25.04254356 15 25 C14.95101562 23.87980469 14.90203125 22.75960937 14.8515625 21.60546875 C14.77652144 20.13278797 14.70097418 18.66013293 14.625 17.1875 C14.5940625 16.44951172 14.563125 15.71152344 14.53125 14.95117188 C14.32653852 11.18106885 14.13566173 9.20349259 12 6 C10.02 6.33 8.04 6.66 6 7 C6 12.94 6 18.88 6 25 C4.02 25 2.04 25 0 25 C0 16.75 0 8.5 0 0 Z " fill="#FFFFFF" transform="translate(201,27)"/>
<path d="M0 0 C5.28497409 -0.52849741 5.28497409 -0.52849741 8 0 C10.5 3 10.5 3 12 6 C12.45375 5.195625 12.9075 4.39125 13.375 3.5625 C15 1 15 1 17 0 C19.3329866 -0.04022391 21.66706666 -0.04320247 24 0 C22.7500564 2.84078091 21.17602101 5.03390974 19.25 7.4375 C17.18701597 10.18414746 17.18701597 10.18414746 17.375 13.5625 C18.70795739 15.56193608 20.06939432 17.30565657 21.625 19.125 C24 22 24 22 24 25 C21.69 25 19.38 25 17 25 C17 24.34 17 23.68 17 23 C16.34 23 15.68 23 15 23 C13.62689293 21.70766393 12.28965176 20.37562854 11 19 C10.505 19.99 10.01 20.98 9.5 22 C7 25 7 25 4.953125 25.3984375 C2.75 25.375 2.75 25.375 -1 25 C0.50912958 20.01987239 3.55661849 16.75740058 7 13 C5.36373651 9.52867466 3.32842748 6.63705141 1.0234375 3.5859375 C0 2 0 2 0 0 Z " fill="#FFFFFF" transform="translate(276,27)"/>
<path d="M0 0 C5.28 0 10.56 0 16 0 C15.67 1.98 15.34 3.96 15 6 C12.69 6 10.38 6 8 6 C6.76240177 9.71279469 6.64391103 13.31306346 6.4375 17.1875 C6.39431641 17.93708984 6.35113281 18.68667969 6.30664062 19.45898438 C6.20077315 21.30578375 6.0999024 23.15286834 6 25 C4.02 25 2.04 25 0 25 C0 16.75 0 8.5 0 0 Z " fill="#FFFFFF" transform="translate(132,27)"/>
<path d="M0 0 C3.3 0 6.6 0 10 0 C10 8.25 10 16.5 10 25 C7.69 25 5.38 25 3 25 C3 18.73 3 12.46 3 6 C2.01 6 1.02 6 0 6 C0 4.02 0 2.04 0 0 Z " fill="#FFFFFF" transform="translate(187,27)"/>
<path d="M0 0 C0.042721 1.66611905 0.04063832 3.33382885 0 5 C-1 6 -1 6 -3.5 6.125 C-6 6 -6 6 -7 5 C-7.04063832 3.33382885 -7.042721 1.66611905 -7 0 C-4.3333581 -1.33332095 -2.83319697 -0.67102033 0 0 Z " fill="#FFFFFF" transform="translate(197,19)"/>
</svg>
